<?xml version="1.0" standalone="no"?>
<!DOCTYPE svg PUBLIC "-//W3C//DTD SVG 20010904//EN"
 "http://www.w3.org/TR/2001/REC-SVG-20010904/DTD/svg10.dtd">
<svg version="1.0" xmlns="http://www.w3.org/2000/svg"
 width="64.000000pt" height="64.000000pt" viewBox="0 0 64.000000 64.000000"
 preserveAspectRatio="xMidYMid meet">

<g transform="translate(0.000000,64.000000) scale(0.100000,-0.100000)"
fill="#000000" stroke="none">
<path d="M371 543 c-34 -29 -37 -74 -7 -110 14 -17 26 -35 26 -40 0 -6 -31
-13 -69 -16 -39 -3 -88 -15 -113 -27 -32 -15 -53 -19 -83 -14 -53 7 -73 -12
-53 -49 20 -38 108 -106 162 -125 31 -11 51 -25 57 -39 22 -58 159 -88 159
-35 0 10 5 23 12 30 9 9 5 12 -19 12 -35 0 -53 -17 -29 -26 31 -12 16 -27 -20
-21 -39 7 -84 32 -84 47 0 6 24 10 54 10 32 0 58 5 65 13 28 34 -54 50 -109
22 -27 -14 -34 -14 -67 0 -21 9 -49 23 -61 31 -22 15 -23 16 -6 28 20 15 13
46 -11 46 -9 0 -26 -5 -37 -11 -18 -10 -25 -8 -40 11 -28 35 -23 43 25 36 33
-5 55 -1 92 15 26 12 80 24 119 28 64 5 71 8 74 29 2 13 -7 35 -22 53 -30 36
-32 47 -10 77 22 32 59 28 86 -8 12 -17 36 -35 54 -42 42 -15 34 -28 -17 -28
-50 0 -51 -19 -4 -79 50 -62 48 -102 -5 -153 -40 -38 -35 -52 8 -22 30 21 52
66 52 108 0 25 -10 46 -36 78 l-37 43 36 3 c62 5 77 52 20 67 -15 3 -42 22
-59 41 -36 38 -70 44 -103 17z m-194 -289 c-3 -3 -12 -4 -19 -1 -8 3 -5 6 6 6
11 1 17 -2 13 -5z m221 -91 c-10 -2 -26 -2 -35 0 -10 3 -2 5 17 5 19 0 27 -2
18 -5z"/>
</g>
</svg>
